<svg xmlns="http://www.w3.org/2000/svg" fill="none" viewBox="0 0 80 80" height="80" width="80">
<path fill="#8486EC" d="M79.9732 31.9379L32.5693 0.263123L0.894579 47.6669L48.2984 79.3417L79.9732 31.9379Z"></path>
<path stroke-linejoin="round" stroke-linecap="round" stroke-miterlimit="10" stroke-width="4" stroke="#454545" d="M36.01 71.82H25.62C15.74 71.82 7.72998 63.81 7.72998 53.93V24.24H53.9V53.93C53.9 63.81 45.89 71.82 36.01 71.82Z"></path>
<path stroke-linejoin="round" stroke-linecap="round" stroke-miterlimit="10" stroke-width="4" stroke="#454545" d="M30.8197 45.88C34.6139 45.88 37.6897 42.8042 37.6897 39.01C37.6897 35.2158 34.6139 32.14 30.8197 32.14C27.0255 32.14 23.9497 35.2158 23.9497 39.01C23.9497 42.8042 27.0255 45.88 30.8197 45.88Z"></path>
<path stroke-linejoin="round" stroke-linecap="round" stroke-miterlimit="10" stroke-width="4" stroke="#454545" d="M37.2401 51.98C35.1601 52.79 33.2801 53.43 30.8201 53.43C27.9401 53.43 26.0601 52.78 23.5801 51.16"></path>
<path stroke-linejoin="round" stroke-linecap="round" stroke-miterlimit="10" stroke-width="4" stroke="#454545" d="M23.58 51.17L15.3101 65.84"></path>
<path stroke-linejoin="round" stroke-linecap="round" stroke-miterlimit="10" stroke-width="4" stroke="#454545" d="M45.6598 66.45L37.2397 51.98"></path>
</svg>
