<svg xmlns="http://www.w3.org/2000/svg" fill="none" viewBox="0 0 175 174" height="174" width="175">
<path fill="#FF667D" d="M163.652 57.7877L27.0425 148.803L5.20044 114.799L141.795 23.7831L163.652 57.7877Z"></path>
<path stroke-linejoin="round" stroke-linecap="round" stroke-width="4" stroke="#3E3E3E" d="M81.0655 95.5361L75.6012 90.0991L69.4848 83.8853C60.2636 74.658 70.0592 64.3432 81.0655 75.357C91.5907 64.8247 101.914 74.6735 92.6463 83.8853L86.561 90.0991L81.0655 95.5361Z"></path>
<path stroke-linejoin="round" stroke-linecap="round" stroke-width="4" stroke="#3E3E3E" d="M68.5842 105.261C63.0153 102.463 58.5527 97.8665 55.9187 92.2154C53.2847 86.5644 52.6333 80.1892 54.0699 74.1216C55.5066 68.0541 58.9472 62.6491 63.835 58.7814C68.7228 54.9138 74.7719 52.8097 81.0032 52.8097C87.2345 52.8097 93.2836 54.9138 98.1714 58.7814C103.059 62.6491 106.5 68.0541 107.937 74.1216C109.373 80.1892 108.722 86.5644 106.088 92.2154C103.454 97.8665 98.9912 102.463 93.4223 105.261"></path>
<path stroke-linejoin="round" stroke-linecap="round" stroke-width="4" stroke="#3E3E3E" d="M93.5 105.261V129.277C93.5 132.573 92.1915 135.734 89.8625 138.064C87.5335 140.395 84.3747 141.704 81.0809 141.704C77.7872 141.704 74.6283 140.395 72.2993 138.064C69.9703 135.734 68.6619 132.573 68.6619 129.277V105.261"></path>
<path stroke-linejoin="round" stroke-linecap="round" stroke-width="4" stroke="#3E3E3E" d="M68.5842 129.277H93.5"></path>
<path stroke-linejoin="round" stroke-linecap="round" stroke-width="4" stroke="#3E3E3E" d="M68.5842 117.735H93.5"></path>
<path stroke-linejoin="round" stroke-linecap="round" stroke-width="4" stroke="#3E3E3E" d="M81.0654 95.5361V117.735"></path>
<path stroke-linejoin="round" stroke-linecap="round" stroke-width="4" stroke="#3E3E3E" d="M81.0344 41.4145V34.1755"></path>
<path stroke-linejoin="round" stroke-linecap="round" stroke-width="4" stroke="#3E3E3E" d="M121.163 79.0387H128.382"></path>
<path stroke-linejoin="round" stroke-linecap="round" stroke-width="4" stroke="#3E3E3E" d="M114.162 48.0787L108.387 52.4439"></path>
<path stroke-linejoin="round" stroke-linecap="round" stroke-width="4" stroke="#3E3E3E" d="M46.8975 102.309L41.1382 106.674"></path>
<path stroke-linejoin="round" stroke-linecap="round" stroke-width="4" stroke="#3E3E3E" d="M113.991 102.309L119.766 106.674"></path>
<path stroke-linejoin="round" stroke-linecap="round" stroke-width="4" stroke="#3E3E3E" d="M43.6531 49.1818L49.4279 53.5469"></path>
<path stroke-linejoin="round" stroke-linecap="round" stroke-width="4" stroke="#3E3E3E" d="M33.9041 79.0387H41.1381"></path>
</svg>
