<svg xmlns="http://www.w3.org/2000/svg" fill="none" viewBox="0 0 113 113" height="113" width="113">
<path fill="#FF667D" d="M91.71 36.13L68.41 99.77L15.29 80.32L67.08 27.12L91.71 36.13Z"></path>
<path stroke-linejoin="round" stroke-linecap="round" stroke-width="4" stroke="#3E3E3E" d="M57.92 26.58C60.5213 26.58 62.63 24.4712 62.63 21.87C62.63 19.2687 60.5213 17.16 57.92 17.16C55.3187 17.16 53.21 19.2687 53.21 21.87C53.21 24.4712 55.3187 26.58 57.92 26.58Z"></path>
<path stroke-linejoin="round" stroke-linecap="round" stroke-width="4" stroke="#3E3E3E" d="M44.25 80.79C51.2198 80.79 56.87 75.1398 56.87 68.17C56.87 61.2002 51.2198 55.55 44.25 55.55C37.2802 55.55 31.63 61.2002 31.63 68.17C31.63 75.1398 37.2802 80.79 44.25 80.79Z"></path>
<path stroke-linejoin="round" stroke-linecap="round" stroke-width="4" stroke="#3E3E3E" d="M57.92 33.16C57.92 33.16 58.61 48.48 40.78 48.48C22.95 48.48 24.08 65.18 24.08 65.18"></path>
</svg>
