<svg xmlns="http://www.w3.org/2000/svg" fill="none" viewBox="0 0 167 166" height="166" width="167">
<path fill="#FF667D" d="M134.972 123.437C131.67 123.371 128.44 122.463 125.588 120.798C122.736 119.132 120.357 116.766 118.676 113.922C114.617 107.505 106.321 102.629 97.9364 101.784C92.9337 101.518 87.9171 101.747 82.9593 102.466C77.3386 103.177 71.677 103.513 66.0119 103.474C46.7113 102.912 28.3223 95.1338 14.4734 81.6735C5.92563 73.5373 4.87383 59.1025 11.9994 49.4102C19.125 39.7178 31.7912 38.4433 40.2797 46.5795C47.4592 53.4347 56.9209 57.3888 66.8414 57.6798C71.0075 57.6616 75.1684 57.3845 79.3002 56.8499C86.6622 55.8365 94.1111 55.608 101.521 56.1681C111.571 57.329 121.238 60.7085 129.823 66.0625C138.408 71.4165 145.697 78.6114 151.164 87.1273C157.667 97.3829 155.608 111.699 146.631 119.094C143.369 121.858 139.245 123.394 134.972 123.437Z"></path>
<path fill="#3E3E3E" d="M81.1667 75.0342C80.4032 75.0342 79.6569 74.808 79.0217 74.3843C78.3865 73.9606 77.8909 73.3582 77.5974 72.6532C77.3039 71.9481 77.2256 71.1719 77.3725 70.4224C77.5193 69.6729 77.8846 68.9836 78.4223 68.4415C78.9601 67.8994 79.6463 67.5286 80.3944 67.3761C81.1424 67.2235 81.9189 67.2959 82.6259 67.5841C83.3329 67.8723 83.9388 68.3635 84.3672 68.9957C84.7956 69.6279 85.0273 70.3728 85.0332 71.1365C85.0371 71.647 84.94 72.1531 84.7474 72.6259C84.5548 73.0986 84.2707 73.5285 83.9112 73.8908C83.5518 74.2531 83.1242 74.5407 82.6532 74.737C82.1822 74.9332 81.6769 75.0342 81.1667 75.0342Z"></path>
<path stroke-linejoin="round" stroke-linecap="round" stroke-width="4" stroke="#3E3E3E" d="M106.217 39.3771C106.217 39.3771 80.7962 31.4187 56.6492 87.0682L70.3078 90.2397C70.3078 90.2397 63.3155 136.019 110.306 119.495"></path>
<path stroke-linejoin="round" stroke-linecap="round" stroke-width="4" stroke="#3E3E3E" d="M56.0123 39.3771C56.0123 39.3771 81.4778 31.4187 105.595 87.0682L91.9218 90.2397C91.9218 90.2397 98.9141 136.019 51.9236 119.495"></path>
</svg>
