<svg xmlns="http://www.w3.org/2000/svg" fill="none" viewBox="0 0 169 168" height="168" width="169">
<path fill="#FF667D" d="M134.939 8.87927L119.228 140.238L58.587 159.121L22.7122 43.8411L134.939 8.87927Z"></path>
<path stroke-linejoin="round" stroke-linecap="round" stroke-width="4" stroke="#3E3E3E" d="M56.0381 114.71L40.4233 99.0879L24.8086 114.71L40.4233 130.332L56.0381 114.71Z"></path>
<path stroke-linejoin="round" stroke-linecap="round" stroke-width="4" stroke="#3E3E3E" d="M56.0535 98.0463C56.0535 98.0463 87.2659 57.2049 96.8006 66.744C106.335 76.2832 66.8774 106.491 78.6008 113.99C88.5702 120.319 117.924 83.9925 115.855 85.8223"></path>
<path stroke-linejoin="round" stroke-linecap="round" stroke-width="4" stroke="#3E3E3E" d="M132.241 82.0126L121.522 71.3036C112.991 62.7544 122.061 53.2152 132.241 63.3993C142.015 53.6202 151.52 62.7244 142.945 71.3036L132.241 82.0126Z"></path>
</svg>
