<svg width="37" height="36" viewBox="0 0 37 36" fill="none" xmlns="http://www.w3.org/2000/svg">
<ellipse cx="18.6146" cy="17.8714" rx="17.8714" ry="17.8714" fill="white"/>
<path d="M18.6128 14.6615C16.4066 14.6615 14.626 16.4421 14.626 18.6484C14.626 20.8546 16.4066 22.6352 18.6128 22.6352C20.8191 22.6352 22.5996 20.8546 22.5996 18.6484C22.5996 16.4421 20.8191 14.6615 18.6128 14.6615ZM18.6128 21.2395C17.1861 21.2395 16.0217 20.0752 16.0217 18.6484C16.0217 17.2216 17.1861 16.0572 18.6128 16.0572C20.0396 16.0572 21.2039 17.2216 21.2039 18.6484C21.2039 20.0752 20.0396 21.2395 18.6128 21.2395ZM22.7629 13.5691C22.2478 13.5691 21.8318 13.985 21.8318 14.5002C21.8318 15.0153 22.2478 15.4313 22.7629 15.4313C23.278 15.4313 23.694 15.0172 23.694 14.5002C23.6941 14.3778 23.6702 14.2567 23.6234 14.1437C23.5767 14.0306 23.5081 13.9279 23.4216 13.8414C23.3351 13.7549 23.2324 13.6864 23.1194 13.6396C23.0063 13.5929 22.8852 13.5689 22.7629 13.5691ZM26.3842 18.6484C26.3842 17.5753 26.394 16.5121 26.3337 15.441C26.2734 14.1969 25.9896 13.0928 25.0799 12.1831C24.1683 11.2714 23.0661 10.9896 21.8221 10.9293C20.7491 10.869 19.6858 10.8788 18.6148 10.8788C17.5418 10.8788 16.4785 10.869 15.4075 10.9293C14.1634 10.9896 13.0593 11.2734 12.1496 12.1831C11.238 13.0948 10.9561 14.1969 10.8958 15.441C10.8356 16.514 10.8453 17.5773 10.8453 18.6484C10.8453 19.7194 10.8356 20.7847 10.8958 21.8557C10.9561 23.0998 11.2399 24.2039 12.1496 25.1136C13.0613 26.0253 14.1634 26.3072 15.4075 26.3674C16.4804 26.4277 17.5437 26.418 18.6148 26.418C19.6878 26.418 20.751 26.4277 21.8221 26.3674C23.0661 26.3072 24.1702 26.0234 25.0799 25.1136C25.9916 24.202 26.2734 23.0998 26.3337 21.8557C26.3959 20.7847 26.3842 19.7214 26.3842 18.6484ZM24.6737 23.232C24.5318 23.5858 24.3607 23.8501 24.0866 24.1223C23.8126 24.3964 23.5501 24.5674 23.1964 24.7093C22.1739 25.1156 19.7461 25.0242 18.6128 25.0242C17.4796 25.0242 15.0498 25.1156 14.0273 24.7113C13.6736 24.5694 13.4092 24.3983 13.1371 24.1242C12.863 23.8501 12.6919 23.5877 12.55 23.2339C12.1457 22.2095 12.2371 19.7816 12.2371 18.6484C12.2371 17.5151 12.1457 15.0853 12.55 14.0628C12.6919 13.709 12.863 13.4446 13.1371 13.1725C13.4112 12.9004 13.6736 12.7274 14.0273 12.5855C15.0498 12.1811 17.4796 12.2725 18.6128 12.2725C19.7461 12.2725 22.1759 12.1811 23.1983 12.5855C23.5521 12.7274 23.8164 12.8984 24.0886 13.1725C24.3627 13.4466 24.5337 13.709 24.6756 14.0628C25.0799 15.0853 24.9886 17.5151 24.9886 18.6484C24.9886 19.7816 25.0799 22.2095 24.6737 23.232Z" fill="#454545"/>
</svg>
