<svg width="36" height="36" viewBox="0 0 36 36" fill="none" xmlns="http://www.w3.org/2000/svg">
<ellipse cx="17.8714" cy="17.8714" rx="17.8714" ry="17.8714" fill="white"/>
<path d="M21.5 14.5C22.6935 14.5 23.8381 14.9741 24.682 15.818C25.5259 16.6619 26 17.8065 26 19V24.25H23V19C23 18.6022 22.842 18.2206 22.5607 17.9393C22.2794 17.658 21.8978 17.5 21.5 17.5C21.1022 17.5 20.7206 17.658 20.4393 17.9393C20.158 18.2206 20 18.6022 20 19V24.25H17V19C17 17.8065 17.4741 16.6619 18.318 15.818C19.1619 14.9741 20.3065 14.5 21.5 14.5V14.5Z" stroke="#454545" stroke-width="1.31538" stroke-linecap="round" stroke-linejoin="round"/>
<path d="M14 15.25H11V24.25H14V15.25Z" stroke="#454545" stroke-width="1.31538" stroke-linecap="round" stroke-linejoin="round"/>
<path d="M12.5005 13C13.3289 13 14.0005 12.3284 14.0005 11.5C14.0005 10.6716 13.3289 10 12.5005 10C11.6721 10 11.0005 10.6716 11.0005 11.5C11.0005 12.3284 11.6721 13 12.5005 13Z" stroke="#454545" stroke-width="1.31538" stroke-linecap="round" stroke-linejoin="round"/>
</svg>
