<svg width="566" height="340" viewBox="0 0 566 340" fill="none" xmlns="http://www.w3.org/2000/svg">
<path d="M171 273L140 338.5H209L171 273Z" fill="#FF9776"/>
<path d="M171.018 0L227 114H113L171.018 0Z" fill="#FF9776"/>
<path d="M394.018 0L450 114H336L394.018 0Z" fill="#FF9776" fill-opacity="0.38"/>
<path d="M337 114.5L393 226H281L337 114.5Z" fill="#FFD7CB"/>
<path d="M113.5 113L168.5 225H56.5L113.5 113Z" fill="#FFD7CB"/>
<path d="M504 224.5L566 338H447L504 224.5Z" fill="#FFB198"/>
<path d="M446.936 337.954L390.954 223.954H504.954L446.936 337.954Z" fill="#FFD7CB"/>
<path d="M224.982 338L169 224H283L224.982 338Z" fill="#FFD7CB"/>
<path d="M336.785 114H449.429L504.5 225H391.856L336.785 114Z" fill="#FF9776" fill-opacity="0.75"/>
<path d="M114.5 114H227.144L282.215 225H169.571L114.5 114Z" fill="#FF9776" fill-opacity="0.75"/>
<path d="M281 226H391L345.147 338H224.5L281 226Z" fill="#FFB198"/>
<path d="M56.5 225H169L125.5 340H0L56.5 225Z" fill="#FF9776"/>
</svg>
