<svg width="36" height="36" viewBox="0 0 36 36" fill="none" xmlns="http://www.w3.org/2000/svg">
<ellipse cx="17.8714" cy="17.8714" rx="17.8714" ry="17.8714" fill="white"/>
<path d="M24.7229 12.5277L26 11.2745V11H21.5771L18.425 19.0511L14.8396 11H10.2021V11.2745L11.6938 13.117C11.8396 13.2532 11.9146 13.4532 11.8958 13.6532V20.8936C11.9417 21.1553 11.8604 21.4213 11.6812 21.6106L10 23.7021V23.9723H14.7625V23.6979L13.0833 21.6128C12.9934 21.5195 12.9257 21.4062 12.8856 21.2819C12.8455 21.1575 12.834 21.0254 12.8521 20.8957V14.6319L17.0333 23.9766H17.5188L21.1146 14.6319V22.0766C21.1146 22.2723 21.1146 22.3128 20.9896 22.4426L19.6958 23.7255V24H25.9708V23.7255L24.7229 22.4723C24.6146 22.3872 24.5583 22.2447 24.5813 22.1064V12.8936C24.5705 12.8252 24.5779 12.7552 24.6029 12.6908C24.6278 12.6264 24.6693 12.57 24.7229 12.5277Z" fill="#454545"/>
</svg>
