<svg width="37" height="36" viewBox="0 0 37 36" fill="none" xmlns="http://www.w3.org/2000/svg">
<ellipse cx="18.3578" cy="17.8714" rx="17.8714" ry="17.8714" fill="white"/>
<path d="M26.9053 13.2244C26.3052 13.4823 25.6522 13.6679 24.9796 13.7402C25.6779 13.3268 26.2009 12.6737 26.4503 11.9034C25.795 12.2919 25.0772 12.5643 24.3285 12.7085C24.0157 12.3752 23.6372 12.1097 23.2169 11.9285C22.7965 11.7473 22.3432 11.6543 21.8851 11.6553C20.032 11.6553 18.5417 13.1521 18.5417 14.9889C18.5417 15.2468 18.573 15.5047 18.624 15.7529C15.8492 15.6083 13.3745 14.2874 11.7292 12.2649C11.4294 12.7752 11.2723 13.3561 11.2742 13.9474C11.2742 15.1042 11.8645 16.1242 12.7646 16.7241C12.2341 16.7032 11.7161 16.558 11.2527 16.3V16.3411C11.2527 17.961 12.4018 19.3034 13.9333 19.6121C13.6458 19.6866 13.35 19.7246 13.0529 19.7255C12.8352 19.7255 12.6293 19.704 12.4214 19.6747C12.845 20.9956 14.0785 21.955 15.5472 21.9863C14.3981 22.8832 12.9587 23.4108 11.3958 23.4108C11.1154 23.4108 10.8565 23.401 10.5879 23.3697C12.0704 24.3175 13.8294 24.8646 15.7237 24.8646C21.8734 24.8646 25.2384 19.788 25.2384 15.3816C25.2384 15.237 25.2384 15.0924 25.2286 14.9478C25.8797 14.473 26.4503 13.8848 26.9053 13.2244Z" fill="#454545"/>
</svg>
